<?xml version="1.0" encoding="UTF-8"?>
<svg xmlns="http://www.w3.org/2000/svg" viewBox="0 0 277.69 254.13">
  <path
    d="M254,.13c-10,0-9,30-17.66,68.28-4.82,21.32-12.34,53.72-16.34,68.72-1,3-7.03,31.06-16,46-3,5-4.96,5-18,5-4,0-8,0-10.16,2.76-1.52,1.94-2.81,5-3.84,7.24-1.16,2.54-3.52,3.57-6,4-1.61.28-11.14-.29-18-2-16-4-16.48.56-23,3-8,3-10,13-10,19,0,2,15.61,5.13,64,17,26.26,6.44,46.96,15,60,15,6,0,18.21-12.11,24-15,31.62-15.81,2.89-19.76-.73-20.9-.76-.24-2.02-.64-2.8-.83-14.25-3.48-15.2-2.32-13.47-7.27,2.03-5.82,1.45-11.48-3-13-2.95-1.01-3.97-.65-13-3-2.83-.74-4-1-5-2-2.12-2.12,1-15,3-25,.78-3.92,2-15,4-20,1.66-4.15,4.01-5.38,6-13,3.51-13.46,6.64-35.15,12-54,9.9-34.8,15-69,14-77-.51-4.09-7.79-3-10-3Z"
  />
  <path
    d="M238,145.13c-1.61,2.38-3.46,6.18-4,9-.82,4.25-4,16-4,23,0,10.4,4,9,7,4,1.62-2.69,6.03-10.28,7-21,2-22-3.04-19.37-6-15Z"
  />
  <path
    d="M219,57.13s7.04-33-47-33c-26,0-54,24-62,37l-10,23v15.64s-6,7.36-6,15.36,8,11,8,11l1,18-53.14,14.5S0,177.13,0,198.13s37,23,47,23,43-4,55-13c10.65-7.98,41-29,46-37,.75-1.2,1.64-3.22,2-5,1-5-4-15-13-15-10.53,0-20.88,8.88-25,13-1,1-4.75,3.3-7,5l-15,8s-34,13-50,13c-5,0,36-16,36-16,0,0,20-10,30-10,6-2,17.02-17.25,32-16,12,1,17,15,15,20-3.32,8.3-8,10-8,10,9,0,12-7,12-7,0,0-1.58-.79-2-2l3-5c5,3,11,8,11,8,0,2-3,5-3,5-.84-.04-3-2-3-2,0,0-3,3-8,5,0,0-6,2-11,2s-6.59,2.77-7,4c-1,3,.35,2.98,1,3,5.51.19,28,2,33,0,2.94-1.17,5-6,8-6h11.14c2.2,0,4.4-.42,6.4-1.33,1.91-.87,3.46-1.67,4.46-3.67,6.44-12.89,19-56,25-88,4.43-23.63-7-33-7-33ZM121,150.13c-4,0-8-5.11-8-11,0-2-.12-8,4-8s9,5.93,9,13c0,3-2.31,6-5,6ZM175,155.13c-5,0-11-5.78-11-12,0-3,1-8,6-8s10,5.78,10,12c0,3-1.64,8-5,8Z"
  />
</svg>
