<?xml version="1.0" encoding="UTF-8" standalone="no"?>
<svg
   width="512"
   height="512"
   viewBox="0 0 512 512"
   version="1.1"
   id="svg1"
   xmlns="http://www.w3.org/2000/svg"
   xmlns:svg="http://www.w3.org/2000/svg">
  <defs
     id="defs1" />
  <path
     d="m 509.47869,318.52452 c 7.15198,33.25482 -1.11284,67.96239 -22.47874,94.42377 -21.37057,26.46293 -53.55447,41.84092 -87.56049,41.84092 H 113.00655 c -34.006032,0 -66.189923,-15.37799 -87.557381,-41.84092 C 4.0796914,386.48691 -4.1845036,351.77934 2.9671618,318.52452 L 53.403646,83.966715 C 55.751942,73.043189 63.25003,63.938699 73.520131,59.543214 83.78868,55.146177 95.55188,56.006028 105.07233,61.84805 L 256.223,154.59093 407.37368,61.84805 c 9.52045,-5.842022 21.28365,-6.701873 31.55219,-2.304836 10.27011,4.395485 17.76819,13.499975 20.11649,24.423501 z M 393.59123,264.42373 c 0,-16.9937 -13.77314,-30.76994 -30.76064,-30.76994 h -59.263 c -16.98749,0 -30.75753,13.77624 -30.75753,30.76994 v 59.28007 c 0,16.99371 13.77004,30.76684 30.75753,30.76684 h 59.263 c 16.9875,0 30.76064,-13.77313 30.76064,-30.76684 z m -153.95528,0 c 0,-16.9937 -13.77004,-30.76994 -30.75753,-30.76994 h -59.263 c -16.9875,0 -30.76064,13.77624 -30.76064,30.76994 v 59.28007 c 0,16.99371 13.77314,30.76684 30.76064,30.76684 h 59.263 c 16.98749,0 30.75753,-13.77313 30.75753,-30.76684 z"
     id="path1" />
</svg>
